<mxfile host="app.diagrams.net" modified="2024-11-04T22:17:29.198Z" agent="Mozilla/5.0 (Macintosh; Intel Mac OS X 10.15; rv:132.0) Gecko/20100101 Firefox/132.0" version="24.1.0" etag="A0DDOVYazhvUXt7_n-nY" type="github">
  <diagram name="Page-1" id="X7BLYFMeMGoi6zf0hAHf">
    <mxGraphModel>
      <root>
        <mxCell id="0" />
        <mxCell id="1" parent="0" />
      </root>
    </mxGraphModel>
  </diagram>
</mxfile>
